:SAMPLES-PER-SECOND 30
:FULLY-SPECIFIED
:DEGREES
51
root  -64.3159 36.905 -19.4451 37.5337 6.86711 -0.12569
RightUpLeg  -75.089 -16.796 23.2138
RightLeg  39.7275 -0.609883 -0.83044
RightFoot  -5.46959 0.666966 -13.6442
RightToes  0.00048216 0.542163 -0.142577
Spine  70.2319 -5.55128 8.43229
Spine1  -1.27949 1.21274 -4.90365
HEad  -42.1882 -5.16249 -0.565777
LeftShoulder1  10.9128 -28.1792 -28.0986
LeftArm  -60.8337 -68.7894 -2.45006
LeftForeArm  13.1173 -29.0905 -5.59375
LeftHand  -0.25398 0.0180481 5.50724
RightShoulder  6.00333 16.9959 23.0139
RightArm  -60.1781 53.354 -8.51778
RightForeArm  -11.5474 34.6031 8.39184
RightHand  0.393242 5.9144 3.61225
LeftUpLeg  -76.3584 18.4706 -25.0938
LeftLeg  38.7528 1.28443 1.48976
LeftFoot  -3.84091 -0.53548 8.507
LeftToes  1.06246e-005 4.65855e-005 -8.185e-006
52
root  -64.1969 37.2139 -19.6169 35.9857 6.89047 -0.262325
RightUpLeg  -72.6283 -17.8256 23.0875
RightLeg  37.4082 -0.136815 -0.386423
RightFoot  -4.44458 0.76637 -13.1415
RightToes  0.00048216 0.542163 -0.142577
Spine  69.4924 -5.65122 8.36835
Spine1  -1.10085 1.01269 -4.88132
HEad  -41.4967 -4.54728 -1.6926
LeftShoulder1  11.0251 -27.9446 -28.7344
LeftArm  -55.2757 -66.3341 -8.11021
LeftForeArm  13.1171 -31.8052 -6.25486
LeftHand  -0.25398 0.0180481 5.50724
RightShoulder  6.21933 17.1699 23.8539
RightArm  -55.1477 51.8828 -4.55596
RightForeArm  -12.7244 37.6686 9.38014
RightHand  0.225348 5.57067 1.98083
LeftUpLeg  -73.7908 18.9052 -24.4473
LeftLeg  36.7313 1.29682 1.41516
LeftFoot  -2.89634 -0.610802 8.49316
LeftToes  1.06246e-005 4.65855e-005 -8.185e-006
53
root  -64.0689 37.541 -19.7922 34.1622 6.93136 -0.308265
RightUpLeg  -69.7941 -19.206 22.9533
RightLeg  34.8319 0.388143 0.0290876
RightFoot  -3.61189 0.830941 -12.5927
RightToes  0.00048216 0.542163 -0.142577
Spine  68.4764 -5.68235 8.33481
Spine1  -0.808898 0.892937 -4.79615
HEad  -40.8004 -4.24304 -2.2208
LeftShoulder1  11.1086 -27.4546 -29.5872
LeftArm  -49.1925 -64.1314 -13.7667
LeftForeArm  12.8885 -33.7971 -6.78208
LeftHand  -0.25398 0.0180481 5.50724
RightShoulder  6.37584 17.1318 24.7099
RightArm  -50.1983 50.0948 -0.608537
RightForeArm  -13.3183 40.4942 10.3514
RightHand  0.0840456 5.34834 0.50967
LeftUpLeg  -70.5694 19.2222 -23.4928
LeftLeg  34.3107 1.41086 1.40062
LeftFoot  -2.09459 -0.680089 8.54905
LeftToes  1.06246e-005 4.65855e-005 -8.185e-006
54
root  -63.9291 37.876 -19.9615 32.1462 7.03989 -0.264605
RightUpLeg  -66.7112 -20.8114 22.655
RightLeg  32.1723 0.999309 0.427908
RightFoot  -2.83768 0.884908 -12.0998
RightToes  0.00048216 0.542163 -0.142577
Spine  67.2279 -5.595 8.36071
Spine1  -0.433108 0.845693 -4.42823
HEad  -39.7093 -4.56823 -2.39808
LeftShoulder1  11.1304 -27.2162 -29.9484
LeftArm  -43.7988 -61.4293 -19.2727
LeftForeArm  12.5757 -35.2436 -7.19242
LeftHand  -0.25398 0.0180481 5.50724
RightShoulder  6.34735 16.7821 25.1243
RightArm  -45.5326 48.0165 3.70877
RightForeArm  -13.4469 43.1217 11.3175
RightHand  -0.0193526 5.00392 -0.598803
LeftUpLeg  -66.8805 19.2406 -22.311
LeftLeg  31.6556 1.86465 1.59612
LeftFoot  -1.16473 -0.766904 8.67277
LeftToes  1.06246e-005 4.65855e-005 -8.185e-006
55
root  -63.792 38.22 -20.1099 29.9912 7.29828 -0.24571
RightUpLeg  -63.4017 -22.4803 22.1438
RightLeg  29.5435 1.69255 0.797659
RightFoot  -1.93555 0.928619 -11.4003
RightToes  0.00048216 0.542163 -0.142577
Spine  65.767 -5.68077 8.44402
Spine1  0.122371 0.630258 -4.19929
HEad  -38.6068 -4.26716 -3.15501
LeftShoulder1  11.0045 -27.1819 -29.5737
LeftArm  -40.0681 -57.8212 -23.6525
LeftForeArm  12.0002 -36.6979 -7.63711
LeftHand  -0.25398 0.0180481 5.50724
RightShoulder  6.31524 16.3861 25.6118
RightArm  -41.0578 46.1075 8.19964
RightForeArm  -13.5018 45.4379 12.2484
RightHand  -0.115277 4.61999 -1.70005
LeftUpLeg  -62.9628 19.0519 -20.9566
LeftLeg  28.9475 2.49307 1.84282
LeftFoot  -0.00424286 -0.878028 8.82674
LeftToes  1.06246e-005 4.65855e-005 -8.185e-006
56
root  -63.6664 38.5733 -20.2247 27.6934 7.71276 -0.382951
RightUpLeg  -59.8166 -24.2354 21.5732
RightLeg  26.9224 2.41455 1.10028
RightFoot  -1.00975 0.909106 -10.0979
RightToes  0.00048216 0.542163 -0.142577
Spine  64.21 -5.72859 8.57812
Spine1  0.669783 0.417712 -3.84617
HEad  -37.5483 -2.99692 -5.01401
LeftShoulder1  11.0422 -26.91 -30.0347
LeftArm  -36.5734 -54.1481 -26.906
LeftForeArm  11.0258 -38.0908 -8.10588
LeftHand  -0.25398 0.0180481 5.50724
RightShoulder  6.30456 15.9216 26.3508
RightArm  -36.4519 44.1767 12.2879
RightForeArm  -13.5277 47.4809 13.1454
RightHand  -0.209844 4.29176 -2.86365
LeftUpLeg  -58.8835 18.8929 -19.3997
LeftLeg  26.2567 3.06303 1.98674
LeftFoot  1.03301 -0.967834 8.85207
LeftToes  1.06246e-005 4.65855e-005 -8.185e-006
57
root  -63.5457 38.923 -20.2998 25.2679 8.19294 -0.701294
RightUpLeg  -55.9823 -26.158 21.1094
RightLeg  24.2232 3.142 1.29433
RightFoot  -0.243979 0.815964 -8.39207
RightToes  0.00048216 0.542163 -0.142577
Spine  62.7085 -5.59932 8.71188
Spine1  0.88528 0.360701 -3.35628
HEad  -36.1092 -1.2555 -7.18312
LeftShoulder1  11.2328 -25.9741 -31.8786
LeftArm  -32.1752 -51.0195 -29.7393
LeftForeArm  10.11 -39.1161 -8.4771
LeftHand  -0.25398 0.0180481 5.50724
RightShoulder  6.34028 15.5266 27.2462
RightArm  -31.7345 41.5624 15.5707
RightForeArm  -13.7736 49.4704 14.1143
RightHand  -0.292649 3.9585 -3.96524
LeftUpLeg  -54.7113 18.9332 -17.766
LeftLeg  23.6517 3.54255 2.03574
LeftFoot  1.71111 -1.00025 8.63543
LeftToes  1.06246e-005 4.65855e-005 -8.185e-006
58
root  -63.4262 39.2474 -20.3318 22.7841 8.68796 -1.06901
RightUpLeg  -51.8587 -27.9216 20.3005
RightLeg  21.4972 3.45783 1.41258
RightFoot  0.439599 0.731552 -7.04434
RightToes  0.00048216 0.542163 -0.142577
Spine  61.4239 -5.45055 8.69545
Spine1  0.504099 0.269421 -2.96253
HEad  -33.784 0.583826 -8.82064
LeftShoulder1  11.1642 -24.4635 -33.7179
LeftArm  -27.9465 -47.8191 -32.5525
LeftForeArm  10.072 -40.1188 -8.7975
LeftHand  -0.25398 0.0180481 5.50724
RightShoulder  6.38736 15.3509 27.8263
RightArm  -27.0528 38.1049 18.7092
RightForeArm  -14.7298 51.557 15.2774
RightHand  -0.378313 3.62435 -5.18316
LeftUpLeg  -50.6252 19.3579 -16.4655
LeftLeg  21.1544 3.59299 1.88952
LeftFoot  2.37043 -1.03348 8.45627
LeftToes  1.06246e-005 4.65855e-005 -8.185e-006
59
root  -63.3165 39.5346 -20.3197 20.3317 9.31263 -1.28499
RightUpLeg  -46.8095 -27.966 17.186
RightLeg  18.9469 1.23704 1.71725
RightFoot  1.17996 0.709748 -6.38257
RightToes  0.00048216 0.542163 -0.142577
Spine  59.6982 -5.24649 8.66622
Spine1  0.452299 0.16286 -2.53916
HEad  -30.994 2.09056 -10.0088
LeftShoulder1  11.0492 -23.3354 -34.9749
LeftArm  -25.2728 -44.294 -34.6505
LeftForeArm  10.9409 -41.4456 -9.17619
LeftHand  -0.25398 0.0180481 5.50724
RightShoulder  6.3804 15.1984 28.0756
RightArm  -23.1127 34.234 21.5363
RightForeArm  -16.2999 53.8092 16.7155
RightHand  -0.48698 3.35472 -6.75779
LeftUpLeg  -46.6038 20.0509 -15.4618
LeftLeg  18.7078 2.93198 1.30165
LeftFoot  3.30225 -1.11066 8.47179
LeftToes  1.06246e-005 4.65855e-005 -8.185e-006
60
root  -63.2235 39.787 -20.2707 18.0253 10.2517 -1.2403
RightUpLeg  -40.9318 -25.2798 11.4029
RightLeg  16.7119 -4.50174 2.36326
RightFoot  1.85594 0.707711 -5.9979
RightToes  0.00048216 0.542163 -0.142577
Spine  57.3014 -4.9854 8.85014
Spine1  0.972839 0.123493 -2.10784
HEad  -28.1206 2.8348 -10.8889
LeftShoulder1  11.2558 -22.9864 -36.2813
LeftArm  -23.5515 -40.9447 -35.4198
LeftForeArm  11.6181 -42.9171 -9.6369
LeftHand  -0.25398 0.0180481 5.50724
RightShoulder  6.36973 14.8535 28.6771
RightArm  -20.2512 30.2168 23.3867
RightForeArm  -17.571 56.4881 18.6347
RightHand  -0.613624 3.08267 -8.6825
LeftUpLeg  -42.4548 20.1605 -13.7933
LeftLeg  16.5864 2.21965 0.169973
LeftFoot  4.049 -1.02807 7.42413
LeftToes  1.06246e-005 4.65855e-005 -8.185e-006
61
root  -63.1408 40.0072 -20.201 15.9946 11.5445 -1.0148
RightUpLeg  -35.7625 -21.6569 5.87214
RightLeg  14.8037 -10.9636 3.1159
RightFoot  2.30192 0.678759 -5.53396
RightToes  0.00048216 0.542163 -0.142577
Spine  55.125 -4.88611 9.03395
Spine1  1.05154 -0.155178 -1.68031
HEad  -25.5484 3.59729 -11.675
LeftShoulder1  11.3221 -22.3819 -37.5057
LeftArm  -21.7628 -38.1613 -35.4963
LeftForeArm  11.6093 -44.6062 -10.2523
LeftHand  -0.25398 0.0180481 5.50724
RightShoulder  6.30708 14.4951 29.0309
RightArm  -18.0888 26.1169 25.3183
RightForeArm  -17.5793 59.7103 21.2922
RightHand  -0.74907 2.77835 -10.8882
LeftUpLeg  -39.0752 20.665 -12.5359
LeftLeg  15.5672 -0.277153 -1.03577
LeftFoot  3.95141 -0.436993 3.04584
LeftToes  1.06246e-005 4.65855e-005 -8.185e-006
62
root  -63.0549 40.1908 -20.1262 14.2627 13.1056 -0.770817
RightUpLeg  -31.4442 -17.928 1.3029
RightLeg  12.9779 -17.2903 3.98788
RightFoot  2.58923 0.62839 -4.99219
RightToes  0.00048216 0.542163 -0.142577
Spine  52.9986 -4.8705 9.34289
Spine1  1.08124 -0.465867 -1.36683
HEad  -23.5311 4.3015 -12.4033
LeftShoulder1  11.2449 -21.6864 -38.3849
LeftArm  -19.9323 -36.0602 -35.5735
LeftForeArm  11.7901 -46.5116 -10.9825
LeftHand  -0.25398 0.0180481 5.50724
RightShoulder  6.23918 14.2175 29.2041
RightArm  -16.6452 22.0619 26.9087
RightForeArm  -16.5016 63.0759 24.7059
RightHand  -0.900733 2.6321 -13.2433
LeftUpLeg  -37.1471 22.6542 -12.436
LeftLeg  16.1513 -5.5671 -2.14121
LeftFoot  3.16929 0.633928 -5.14699
LeftToes  1.06246e-005 4.65855e-005 -8.185e-006
63
root  -62.9463 40.327 -20.0502 12.6963 14.8993 -0.688323
RightUpLeg  -27.7814 -14.9353 -1.96586
RightLeg  11.202 -22.7119 4.9217
RightFoot  2.76804 0.554952 -4.32614
RightToes  0.00048216 0.542163 -0.142577
Spine  50.6605 -4.93651 9.99058
Spine1  1.27094 -0.660046 -1.3467
HEad  -21.8561 5.14574 -13.1501
LeftShoulder1  11.2519 -21.3478 -39.0008
LeftArm  -18.3792 -34.3095 -35.5237
LeftForeArm  12.6026 -48.361 -11.6984
LeftHand  -0.25398 0.0180481 5.50724
RightShoulder  6.29569 14.0587 29.858
RightArm  -15.599 18.3575 27.5033
RightForeArm  -15.1282 65.855 28.3093
RightHand  -1.05755 2.73728 -15.3014
LeftUpLeg  -36.1319 24.86 -12.1704
LeftLeg  18.1932 -10.598 -3.4955
LeftFoot  2.28305 1.66653 -14.0055
LeftToes  1.06246e-005 4.65855e-005 -8.185e-006
64
root  -62.799 40.4287 -19.9733 11.1673 16.9027 -0.77072
RightUpLeg  -24.4652 -13.3418 -3.98512
RightLeg  9.4903 -26.6045 5.77568
RightFoot  2.78205 0.433602 -3.34247
RightToes  0.00048216 0.542163 -0.142577
Spine  48.4173 -5.00502 10.6662
Spine1  1.41918 -0.812872 -1.19947
HEad  -20.0646 6.44451 -14.202
LeftShoulder1  11.3666 -21.1705 -39.7582
LeftArm  -16.9489 -32.8939 -35.0869
LeftForeArm  13.3182 -49.6078 -12.2015
LeftHand  -0.25398 0.0180481 5.50724
RightShoulder  6.3772 13.9226 30.6186
RightArm  -14.5402 15.2173 27.6776
RightForeArm  -14.0496 67.7461 31.3975
RightHand  -1.19496 2.96344 -16.7889
LeftUpLeg  -35.3249 25.9967 -10.8441
LeftLeg  21.4927 -11.9194 -4.79942
LeftFoot  1.29133 2.10859 -18.962
LeftToes  1.06246e-005 4.65855e-005 -8.185e-006
